<svg width="1440" height="500" viewBox="0 0 1440 500" fill="none" xmlns="http://www.w3.org/2000/svg">
  <g opacity="0.7">
    <!-- Cloud 1 -->
    <path d="M140 320C162.091 320 180 302.091 180 280C180 257.909 162.091 240 140 240C117.909 240 100 257.909 100 280C100 302.091 117.909 320 140 320Z" fill="white"/>
    <path d="M200 300C222.091 300 240 282.091 240 260C240 237.909 222.091 220 200 220C177.909 220 160 237.909 160 260C160 282.091 177.909 300 200 300Z" fill="white"/>
    <path d="M260 320C282.091 320 300 302.091 300 280C300 257.909 282.091 240 260 240C237.909 240 220 257.909 220 280C220 302.091 237.909 320 260 320Z" fill="white"/>
    <path d="M300 300H140V340H300V300Z" fill="white"/>
    
    <!-- Cloud 2 -->
    <path d="M440 280C462.091 280 480 262.091 480 240C480 217.909 462.091 200 440 200C417.909 200 400 217.909 400 240C400 262.091 417.909 280 440 280Z" fill="white"/>
    <path d="M500 260C522.091 260 540 242.091 540 220C540 197.909 522.091 180 500 180C477.909 180 460 197.909 460 220C460 242.091 477.909 260 500 260Z" fill="white"/>
    <path d="M560 280C582.091 280 600 262.091 600 240C600 217.909 582.091 200 560 200C537.909 200 520 217.909 520 240C520 262.091 537.909 280 560 280Z" fill="white"/>
    <path d="M600 260H440V300H600V260Z" fill="white"/>
    
    <!-- Cloud 3 -->
    <path d="M740 350C762.091 350 780 332.091 780 310C780 287.909 762.091 270 740 270C717.909 270 700 287.909 700 310C700 332.091 717.909 350 740 350Z" fill="white"/>
    <path d="M800 330C822.091 330 840 312.091 840 290C840 267.909 822.091 250 800 250C777.909 250 760 267.909 760 290C760 312.091 777.909 330 800 330Z" fill="white"/>
    <path d="M860 350C882.091 350 900 332.091 900 310C900 287.909 882.091 270 860 270C837.909 270 820 287.909 820 310C820 332.091 837.909 350 860 350Z" fill="white"/>
    <path d="M900 330H740V370H900V330Z" fill="white"/>
    
    <!-- Cloud 4 -->
    <path d="M1040 300C1062.09 300 1080 282.091 1080 260C1080 237.909 1062.09 220 1040 220C1017.91 220 1000 237.909 1000 260C1000 282.091 1017.91 300 1040 300Z" fill="white"/>
    <path d="M1100 280C1122.09 280 1140 262.091 1140 240C1140 217.909 1122.09 200 1100 200C1077.91 200 1060 217.909 1060 240C1060 262.091 1077.91 280 1100 280Z" fill="white"/>
    <path d="M1160 300C1182.09 300 1200 282.091 1200 260C1200 237.909 1182.09 220 1160 220C1137.91 220 1120 237.909 1120 260C1120 282.091 1137.91 300 1160 300Z" fill="white"/>
    <path d="M1200 280H1040V320H1200V280Z" fill="white"/>
    
    <!-- Cloud 5 -->
    <path d="M1340 350C1362.09 350 1380 332.091 1380 310C1380 287.909 1362.09 270 1340 270C1317.91 270 1300 287.909 1300 310C1300 332.091 1317.91 350 1340 350Z" fill="white"/>
    <path d="M1400 330C1422.09 330 1440 312.091 1440 290C1440 267.909 1422.09 250 1400 250C1377.91 250 1360 267.909 1360 290C1360 312.091 1377.91 330 1400 330Z" fill="white"/>
    <path d="M1440 330H1300V370H1440V330Z" fill="white"/>
  </g>
  
  <!-- Hot Air Balloons -->
  <g opacity="0.9">
    <!-- Balloon 1 -->
    <path d="M200 150C217.673 150 232 135.673 232 118C232 100.327 217.673 86 200 86C182.327 86 168 100.327 168 118C168 135.673 182.327 150 200 150Z" fill="#A78BFA" stroke="#8B5CF6" stroke-width="2"/>
    <path d="M195 150V170" stroke="#8B5CF6" stroke-width="2"/>
    <path d="M205 150V170" stroke="#8B5CF6" stroke-width="2"/>
    <path d="M190 170H210" stroke="#8B5CF6" stroke-width="2"/>
    
    <!-- Balloon 2 -->
    <path d="M600 100C617.673 100 632 85.6731 632 68C632 50.3269 617.673 36 600 36C582.327 36 568 50.3269 568 68C568 85.6731 582.327 100 600 100Z" fill="#DBEAFE" stroke="#3B82F6" stroke-width="2"/>
    <path d="M595 100V120" stroke="#3B82F6" stroke-width="2"/>
    <path d="M605 100V120" stroke="#3B82F6" stroke-width="2"/>
    <path d="M590 120H610" stroke="#3B82F6" stroke-width="2"/>
    
    <!-- Balloon 3 -->
    <path d="M1000 130C1017.67 130 1032 115.673 1032 98C1032 80.3269 1017.67 66 1000 66C982.327 66 968 80.3269 968 98C968 115.673 982.327 130 1000 130Z" fill="#FEE2E2" stroke="#EF4444" stroke-width="2"/>
    <path d="M995 130V150" stroke="#EF4444" stroke-width="2"/>
    <path d="M1005 130V150" stroke="#EF4444" stroke-width="2"/>
    <path d="M990 150H1010" stroke="#EF4444" stroke-width="2"/>
  </g>
  
  <!-- Small Hills -->
  <path d="M0 450C100 400 200 430 300 420C400 410 500 430 600 410C700 390 800 420 900 400C1000 380 1100 410 1200 390C1300 370 1400 400 1500 380V500H0V450Z" fill="#F0F4FF" stroke="#E2E8F9" stroke-width="2"/>
  
  <!-- Houses -->
  <g transform="translate(200, 390)">
    <rect x="0" y="20" width="40" height="30" fill="#8B5CF6" />
    <polygon points="0,20 20,0 40,20" fill="#7C3AED" />
    <rect x="15" y="30" width="10" height="20" fill="#F9FAFB" />
  </g>
  
  <g transform="translate(950, 370)">
    <rect x="0" y="20" width="50" height="40" fill="#3B82F6" />
    <polygon points="0,20 25,0 50,20" fill="#2563EB" />
    <rect x="10" y="35" width="10" height="15" fill="#F9FAFB" />
    <rect x="30" y="35" width="10" height="15" fill="#F9FAFB" />
  </g>
  
  <g transform="translate(1300, 380)">
    <rect x="0" y="20" width="45" height="35" fill="#10B981" />
    <polygon points="0,20 22.5,0 45,20" fill="#059669" />
    <rect x="17.5" y="35" width="10" height="20" fill="#F9FAFB" />
  </g>
</svg> 