<svg width="100" height="100" viewBox="0 0 100 100" xmlns="http://www.w3.org/2000/svg">
  <defs>
    <pattern id="search-pattern" patternUnits="userSpaceOnUse" width="100" height="100">
      <g fill="none" stroke="#FFFFFF" stroke-width="0.5" opacity="0.3">
        <!-- Magnifying glass icons -->
        <circle cx="20" cy="20" r="7" />
        <line x1="25" y1="25" x2="30" y2="30" stroke-linecap="round" />
        
        <circle cx="70" cy="20" r="7" />
        <line x1="75" y1="25" x2="80" y2="30" stroke-linecap="round" />
        
        <circle cx="20" cy="70" r="7" />
        <line x1="25" y1="75" x2="30" y2="80" stroke-linecap="round" />
        
        <circle cx="70" cy="70" r="7" />
        <line x1="75" y1="75" x2="80" y2="80" stroke-linecap="round" />
        
        <!-- Document icons -->
        <rect x="40" y="10" width="10" height="15" rx="1" />
        <line x1="42" y1="15" x2="48" y2="15" stroke-linecap="round" />
        <line x1="42" y1="18" x2="48" y2="18" stroke-linecap="round" />
        <line x1="42" y1="21" x2="45" y2="21" stroke-linecap="round" />
        
        <rect x="40" y="60" width="10" height="15" rx="1" />
        <line x1="42" y1="65" x2="48" y2="65" stroke-linecap="round" />
        <line x1="42" y1="68" x2="48" y2="68" stroke-linecap="round" />
        <line x1="42" y1="71" x2="45" y2="71" stroke-linecap="round" />
        
        <rect x="10" y="40" width="10" height="15" rx="1" />
        <line x1="12" y1="45" x2="18" y2="45" stroke-linecap="round" />
        <line x1="12" y1="48" x2="18" y2="48" stroke-linecap="round" />
        <line x1="12" y1="51" x2="15" y2="51" stroke-linecap="round" />
        
        <rect x="60" y="40" width="10" height="15" rx="1" />
        <line x1="62" y1="45" x2="68" y2="45" stroke-linecap="round" />
        <line x1="62" y1="48" x2="68" y2="48" stroke-linecap="round" />
        <line x1="62" y1="51" x2="65" y2="51" stroke-linecap="round" />
      </g>
    </pattern>
  </defs>
  <rect width="100" height="100" fill="url(#search-pattern)" />
</svg> 